<?xml version="1.0" standalone="no"?>
<!DOCTYPE svg PUBLIC "-//W3C//DTD SVG 20010904//EN"
 "http://www.w3.org/TR/2001/REC-SVG-20010904/DTD/svg10.dtd">
<svg version="1.0" xmlns="http://www.w3.org/2000/svg"
 width="265.000000pt" height="265.000000pt" viewBox="0 0 265.000000 265.000000"
 preserveAspectRatio="xMidYMid meet">

<g transform="translate(0.000000,265.000000) scale(0.100000,-0.100000)"
fill="#000000" stroke="none">
<path d="M1430 2290 c0 -13 -7 -20 -20 -20 -18 0 -20 -7 -20 -70 0 -54 4 -72
15 -76 8 -4 15 -12 15 -20 0 -11 -24 -14 -120 -14 -100 0 -120 -2 -120 -15 0
-12 -13 -15 -55 -15 -30 0 -55 -4 -55 -10 0 -5 -20 -10 -45 -10 -25 0 -45 -4
-45 -10 0 -5 -14 -10 -30 -10 -18 0 -33 -6 -36 -15 -4 -8 -15 -15 -25 -15 -10
0 -19 -7 -19 -15 0 -8 -9 -15 -19 -15 -10 0 -21 -7 -25 -15 -3 -8 -12 -15 -20
-15 -7 0 -16 -7 -20 -15 -3 -8 -12 -15 -21 -15 -8 0 -15 -4 -15 -10 0 -5 -7
-10 -15 -10 -8 0 -15 -7 -15 -15 0 -8 -7 -15 -15 -15 -8 0 -15 -9 -15 -21 0
-12 -4 -17 -11 -14 -6 4 -13 -2 -16 -14 -3 -12 -12 -21 -19 -21 -8 0 -14 -9
-14 -19 0 -10 -7 -21 -15 -25 -8 -3 -15 -12 -15 -21 0 -8 -7 -15 -15 -15 -9 0
-15 -9 -15 -25 0 -14 -4 -25 -10 -25 -5 0 -13 -18 -16 -40 -4 -24 -12 -40 -20
-40 -10 0 -14 -17 -14 -65 0 -51 -3 -65 -15 -65 -12 0 -15 -16 -15 -80 0 -64
-3 -80 -15 -80 -12 0 -15 -18 -15 -105 l0 -105 -51 0 c-42 0 -52 -3 -56 -20
-3 -11 -14 -20 -25 -20 -11 0 -22 -8 -25 -19 -3 -11 -13 -21 -24 -24 -17 -5
-19 -15 -19 -83 0 -69 3 -81 23 -99 13 -11 26 -28 30 -37 3 -9 16 -18 29 -20
15 -2 22 -9 20 -20 -3 -16 6 -18 68 -18 44 0 70 -4 70 -11 0 -14 106 -119 120
-119 5 0 10 -4 10 -10 0 -5 7 -10 15 -10 8 0 15 -4 15 -10 0 -5 7 -10 15 -10
8 0 15 -4 15 -10 0 -5 7 -10 15 -10 8 0 15 -4 15 -10 0 -5 7 -10 15 -10 8 0
15 -4 15 -10 0 -5 14 -10 30 -10 20 0 30 -5 30 -15 0 -9 9 -15 24 -15 13 0 26
-5 28 -12 8 -22 -4 -68 -18 -68 -8 0 -14 -9 -14 -21 0 -11 -4 -17 -10 -14 -5
3 -10 -1 -10 -10 0 -9 -14 -29 -30 -45 -17 -16 -30 -34 -30 -40 0 -5 -7 -10
-15 -10 -8 0 -15 -5 -15 -11 0 -6 -7 -17 -15 -25 -22 -23 -19 -29 24 -48 30
-14 43 -16 60 -7 11 7 21 18 21 25 0 8 7 16 15 20 8 3 15 15 15 26 0 11 6 19
12 18 7 -2 14 7 16 19 2 12 12 25 23 28 10 4 19 13 19 21 0 8 7 17 15 20 8 4
15 15 15 25 0 10 5 19 10 19 6 0 10 7 10 16 0 8 7 22 15 30 8 9 15 29 15 45 0
26 -3 29 -30 29 -18 0 -33 6 -36 15 -4 8 -17 15 -29 15 -13 0 -27 5 -30 10 -3
6 -17 10 -31 10 -13 0 -24 5 -24 10 0 6 -11 10 -25 10 -14 0 -25 5 -25 10 0 6
-7 10 -15 10 -8 0 -15 5 -15 10 0 6 -7 10 -15 10 -8 0 -15 5 -15 10 0 6 -5 10
-11 10 -7 0 -22 11 -35 25 -13 14 -28 25 -34 25 -5 0 -10 5 -10 11 0 6 -7 17
-15 25 -8 9 -15 22 -15 30 0 24 172 18 194 -7 9 -11 22 -16 31 -12 16 6 64
-14 77 -31 10 -14 267 -13 276 1 4 7 25 14 47 16 21 2 41 9 43 16 2 6 17 11
33 11 19 0 29 5 29 15 0 10 10 15 30 15 20 0 30 5 30 15 0 10 10 15 30 15 17
0 30 5 30 11 0 14 25 39 39 39 6 0 11 9 11 20 0 11 7 20 15 20 12 0 15 16 15
80 0 64 -3 80 -15 80 -9 0 -15 9 -15 25 0 16 -6 25 -15 25 -8 0 -15 9 -15 20
0 13 -5 18 -15 14 -9 -4 -15 0 -15 10 0 10 -9 16 -25 16 -14 0 -25 5 -25 10 0
6 -11 10 -25 10 -14 0 -25 5 -25 10 0 6 -7 10 -15 10 -8 0 -15 7 -15 15 0 8
-7 15 -15 15 -8 0 -15 4 -15 9 0 6 -11 22 -24 36 -15 16 -22 33 -19 45 4 14 0
20 -11 20 -9 0 -19 7 -22 15 -5 12 -31 15 -149 15 -135 0 -144 -1 -150 -20 -3
-11 -13 -20 -21 -20 -8 0 -14 -10 -14 -24 0 -13 -7 -26 -15 -30 -8 -3 -15 -12
-15 -21 0 -8 -7 -15 -15 -15 -8 0 -15 -4 -15 -10 0 -13 -37 -50 -49 -50 -5 0
-11 -4 -13 -8 -7 -16 -67 -52 -87 -52 -12 0 -21 -4 -21 -10 0 -5 -22 -10 -50
-10 l-50 0 0 85 c0 50 4 85 10 85 6 0 10 26 10 59 0 78 9 121 26 121 11 0 14
17 14 65 0 51 3 65 15 65 10 0 15 10 15 30 0 20 5 30 15 30 10 0 15 10 15 30
0 20 5 30 15 30 8 0 15 9 15 20 0 11 7 23 15 26 8 4 15 10 15 16 0 16 128 138
145 138 8 0 15 7 15 15 0 9 9 15 25 15 16 0 25 6 25 15 0 8 9 15 20 15 11 0
20 5 20 10 0 6 11 10 25 10 14 0 25 5 25 10 0 6 20 10 45 10 33 0 45 4 45 15
0 12 13 15 55 15 44 0 55 3 55 16 0 15 20 16 210 12 195 -5 210 -4 210 12 0
10 7 31 15 46 8 16 15 40 15 52 0 15 7 26 20 29 11 3 20 12 20 19 0 9 12 14
35 14 l35 0 0 -50 c0 -38 -4 -50 -15 -50 -9 0 -15 -9 -15 -25 0 -17 -6 -25
-16 -25 -18 0 -43 -27 -44 -47 0 -7 6 -13 14 -13 8 0 16 6 19 13 4 10 7 10 18
0 18 -18 49 -16 49 2 0 8 5 15 10 15 6 0 10 7 10 15 0 8 7 15 15 15 8 0 15 7
15 15 0 11 11 15 41 15 56 0 79 -14 79 -50 0 -27 -3 -30 -30 -30 -16 0 -30 -4
-30 -10 0 -5 -9 -10 -20 -10 -13 0 -20 -7 -20 -20 0 -15 7 -20 25 -20 14 0 38
-11 53 -25 15 -14 39 -31 55 -38 15 -6 27 -15 27 -19 0 -5 7 -8 15 -8 8 0 15
-7 15 -15 0 -8 7 -15 15 -15 8 0 15 -7 15 -15 0 -8 7 -15 15 -15 8 0 15 -7 15
-15 0 -8 7 -15 15 -15 8 0 15 -7 15 -15 0 -8 5 -15 10 -15 6 0 10 -6 10 -13 0
-7 9 -19 20 -27 11 -8 20 -22 20 -32 0 -10 5 -18 10 -18 10 0 35 -52 28 -57
-2 -1 5 -8 14 -15 9 -7 18 -24 20 -38 2 -14 9 -24 16 -23 8 2 12 -12 12 -42 0
-25 5 -45 10 -45 6 0 10 -27 10 -60 0 -33 4 -60 10 -60 6 0 10 -58 10 -154 0
-128 -3 -155 -15 -160 -11 -4 -15 -21 -15 -61 0 -42 -3 -55 -15 -55 -10 0 -15
-11 -15 -35 0 -19 -4 -35 -10 -35 -5 0 -10 -7 -10 -15 0 -8 -4 -15 -10 -15 -5
0 -10 -4 -10 -10 0 -10 -21 -39 -57 -77 -13 -13 -23 -28 -23 -33 0 -6 -9 -10
-20 -10 -11 0 -20 -7 -20 -15 0 -8 -7 -15 -15 -15 -8 0 -15 -7 -15 -15 0 -8
-9 -15 -20 -15 -11 0 -20 -4 -20 -10 0 -5 -7 -10 -15 -10 -8 0 -15 -4 -15 -10
0 -5 -13 -10 -30 -10 -20 0 -30 -5 -30 -15 0 -10 -16 -16 -50 -21 -27 -4 -50
-10 -50 -15 0 -5 4 -9 10 -9 5 0 8 -13 6 -30 l-3 -30 69 0 c55 0 73 -4 90 -20
12 -11 28 -20 35 -20 7 0 13 -7 13 -15 0 -8 7 -15 15 -15 8 0 15 -4 15 -10 0
-5 7 -10 15 -10 8 0 15 -7 15 -15 0 -8 7 -15 16 -15 8 0 12 -4 9 -10 -14 -22
22 -8 53 21 35 33 41 49 17 49 -8 0 -15 7 -15 15 0 8 -7 15 -15 15 -8 0 -15 5
-15 10 0 6 -9 10 -20 10 -11 0 -20 7 -20 15 0 8 -9 15 -20 15 -11 0 -20 7 -20
15 0 8 -9 15 -20 15 -29 0 -24 22 11 50 70 56 169 162 169 180 0 6 5 10 10 10
6 0 10 7 10 15 0 8 5 15 10 15 6 0 10 6 10 14 0 8 7 16 15 20 9 3 15 19 15 41
0 24 4 35 15 35 12 0 15 14 15 64 0 48 4 65 15 70 12 4 15 32 15 161 0 97 -4
155 -10 155 -6 0 -10 30 -10 70 0 56 -3 70 -15 70 -11 0 -15 12 -15 45 0 32
-4 45 -14 45 -8 0 -17 15 -20 35 -4 19 -10 35 -15 35 -4 0 -13 16 -21 35 -8
19 -17 35 -22 35 -4 0 -8 7 -8 15 0 8 -4 15 -10 15 -5 0 -10 7 -10 15 0 8 -4
15 -10 15 -5 0 -10 5 -10 10 0 6 -11 21 -25 34 -14 13 -25 26 -25 30 0 9 -26
36 -35 36 -3 0 -16 11 -29 25 -13 14 -28 25 -35 25 -6 0 -11 7 -11 15 0 8 -9
15 -20 15 -11 0 -20 4 -20 9 0 5 -9 11 -20 14 -11 3 -20 13 -20 22 0 9 9 19
20 22 16 4 20 14 20 44 0 22 -4 39 -10 39 -5 0 -10 8 -10 19 0 21 -34 31 -106
31 l-44 0 0 40 c0 29 -4 40 -15 40 -8 0 -15 9 -15 19 0 39 -79 43 -116 6 -33
-33 -54 -32 -54 1 0 17 -6 28 -19 31 -11 3 -21 13 -24 24 -4 16 -15 19 -71 19
-59 0 -66 -2 -66 -20z m74 -35 c11 -8 28 -15 37 -15 11 0 20 -11 24 -30 4 -16
5 -31 3 -33 -2 -2 3 -11 11 -20 8 -10 11 -27 7 -42 -5 -20 -13 -25 -36 -25
-19 0 -30 5 -30 14 0 7 -9 16 -20 19 -12 3 -20 14 -20 27 0 16 -4 20 -15 16
-12 -4 -15 5 -15 49 0 60 14 70 54 40z m-354 -970 c0 -8 5 -15 10 -15 6 0 10
-7 10 -15 0 -8 5 -15 10 -15 6 0 10 -6 10 -13 0 -17 73 -97 88 -97 7 0 12 -4
12 -10 0 -5 11 -10 25 -10 13 0 28 -6 32 -13 4 -7 22 -17 38 -22 36 -12 40
-39 6 -41 -13 -1 -26 -6 -30 -11 -3 -6 -16 -13 -28 -17 -13 -4 -23 -12 -23
-17 0 -5 -7 -9 -15 -9 -8 0 -15 -4 -15 -8 0 -5 -12 -15 -27 -23 -16 -8 -31
-18 -35 -23 -10 -15 -308 -21 -308 -7 0 8 -69 11 -240 11 -187 0 -239 -3 -238
-12 2 -7 -5 -12 -14 -12 -11 1 -18 -5 -18 -17 0 -16 -8 -19 -45 -19 l-45 0 0
50 c0 41 3 50 18 50 9 0 24 5 32 10 13 9 13 11 0 20 -8 5 -10 10 -5 11 35 4
71 6 158 7 79 2 97 5 97 17 0 11 12 15 45 15 33 0 45 4 45 15 0 8 11 17 25 21
14 3 25 10 25 15 0 5 7 9 15 9 8 0 15 5 15 11 0 14 25 39 39 39 6 0 11 7 11
15 0 9 7 18 15 21 8 4 15 12 15 20 0 8 5 14 10 14 6 0 10 7 10 15 0 8 5 15 10
15 6 0 10 9 10 20 0 19 7 20 125 20 104 0 125 -2 125 -15z m290 -341 c0 -24
-4 -44 -10 -44 -5 0 -10 -5 -10 -11 0 -14 -61 -69 -77 -69 -7 0 -13 -4 -13
-10 0 -5 -11 -10 -25 -10 -14 0 -25 -4 -25 -10 0 -5 -13 -10 -30 -10 -20 0
-30 -5 -30 -15 0 -10 -10 -15 -34 -15 -21 0 -36 -6 -40 -15 -4 -12 -30 -15
-142 -15 -116 0 -135 2 -131 15 8 20 -1 23 -61 26 -40 2 -53 7 -58 21 -5 16
-18 18 -125 18 -99 0 -119 -3 -119 -15 0 -11 -11 -15 -38 -15 -21 0 -41 2 -43
5 -3 2 -3 20 -1 40 3 26 9 35 23 35 10 0 19 7 19 15 0 22 415 22 444 0 23 -18
236 -22 236 -5 0 6 25 10 55 10 42 0 55 3 55 15 0 8 9 15 20 15 11 0 20 7 20
15 0 8 7 15 15 15 8 0 15 4 15 9 0 5 14 12 30 16 17 4 30 12 30 20 0 7 11 13
25 13 23 0 25 -4 25 -44z"/>
<path d="M1013 1163 c-7 -3 -13 -11 -13 -19 0 -8 -7 -14 -16 -14 -10 0 -14 -7
-12 -22 4 -31 47 -38 55 -9 3 12 9 21 14 21 5 0 9 9 9 19 0 20 -17 31 -37 24z"/>
<path d="M848 1129 c-25 -42 -23 -52 8 -45 34 9 54 29 54 55 0 34 -42 27 -62
-10z"/>
<path d="M663 1534 c-7 -3 -13 -14 -13 -25 0 -10 -7 -19 -15 -19 -12 0 -15
-19 -15 -110 0 -87 3 -110 14 -110 7 0 16 -9 19 -20 4 -16 14 -20 52 -20 39 0
48 4 52 20 3 11 16 23 29 26 23 6 24 9 24 104 0 88 -2 98 -19 103 -11 2 -21
15 -23 28 -3 21 -9 24 -48 26 -25 1 -51 0 -57 -3z"/>
<path d="M1440 1515 c0 -18 -5 -25 -20 -25 -19 0 -20 -7 -20 -105 0 -83 3
-105 14 -105 7 0 16 -9 19 -20 4 -17 14 -20 55 -20 63 0 82 7 82 30 0 10 7 20
15 24 20 7 22 206 2 206 -7 0 -18 9 -25 20 -10 16 -23 20 -67 20 -52 0 -55 -1
-55 -25z"/>
<path d="M1700 237 c0 -12 -9 -28 -20 -35 -11 -7 -20 -19 -20 -27 0 -8 -4 -15
-10 -15 -5 0 -10 -7 -10 -15 0 -8 -6 -15 -13 -15 -6 0 -25 -13 -40 -30 -16
-16 -35 -30 -43 -30 -8 0 -14 -4 -14 -8 0 -5 -13 -7 -30 -4 -23 3 -30 0 -30
-12 0 -12 -10 -16 -44 -16 -31 0 -46 -5 -50 -16 -6 -15 1 -16 56 -10 90 10
178 29 178 38 0 4 7 8 15 8 8 0 15 7 15 15 0 8 7 15 15 15 8 0 15 7 15 15 0 9
7 18 15 21 8 4 15 12 15 20 0 8 7 14 15 14 8 0 15 9 15 20 0 11 7 20 15 20 10
0 15 11 15 35 0 32 -2 35 -30 35 -24 0 -30 -4 -30 -23z"/>
</g>
</svg>
